<mxfile host="app.diagrams.net" modified="2024-07-19T21:26:10.861Z" agent="Mozilla/5.0 (Windows NT 10.0; Win64; x64) AppleWebKit/537.36 (KHTML, like Gecko) Chrome/126.0.0.0 Safari/537.36" etag="GFx06XeSwxT0okAbwgg7" version="24.7.1" type="device">
  <diagram name="Page-1" id="e56a1550-8fbb-45ad-956c-1786394a9013">
    <mxGraphModel dx="1562" dy="857" grid="0" gridSize="10" guides="1" tooltips="1" connect="1" arrows="1" fold="1" page="1" pageScale="1" pageWidth="1400" pageHeight="850" background="none" math="0" shadow="0">
      <root>
        <mxCell id="0" />
        <mxCell id="1" parent="0" />
        <mxCell id="tMoY-XdqjkZpPKfcRoFt-1" value="Автозаправка" style="whiteSpace=wrap;html=1;align=center;" parent="1" vertex="1">
          <mxGeometry x="717" y="237" width="100" height="40" as="geometry" />
        </mxCell>
        <mxCell id="tMoY-XdqjkZpPKfcRoFt-2" value="Владелец" style="whiteSpace=wrap;html=1;align=center;" parent="1" vertex="1">
          <mxGeometry x="1047" y="237" width="100" height="40" as="geometry" />
        </mxCell>
        <mxCell id="tMoY-XdqjkZpPKfcRoFt-3" value="Кассир" style="whiteSpace=wrap;html=1;align=center;" parent="1" vertex="1">
          <mxGeometry x="270" y="405" width="100" height="40" as="geometry" />
        </mxCell>
        <mxCell id="tMoY-XdqjkZpPKfcRoFt-5" value="Приход топлива" style="whiteSpace=wrap;html=1;align=center;" parent="1" vertex="1">
          <mxGeometry x="377" y="107" width="100" height="40" as="geometry" />
        </mxCell>
        <mxCell id="tMoY-XdqjkZpPKfcRoFt-6" value="Имя" style="ellipse;whiteSpace=wrap;html=1;align=center;fontStyle=0;" parent="1" vertex="1">
          <mxGeometry x="1027" y="137" width="100" height="40" as="geometry" />
        </mxCell>
        <mxCell id="tMoY-XdqjkZpPKfcRoFt-9" value="" style="endArrow=none;html=1;rounded=0;entryX=0;entryY=1;entryDx=0;entryDy=0;exitX=0.25;exitY=0;exitDx=0;exitDy=0;" parent="1" source="tMoY-XdqjkZpPKfcRoFt-2" target="tMoY-XdqjkZpPKfcRoFt-6" edge="1">
          <mxGeometry relative="1" as="geometry">
            <mxPoint x="637" y="417" as="sourcePoint" />
            <mxPoint x="797" y="417" as="targetPoint" />
          </mxGeometry>
        </mxCell>
        <mxCell id="tMoY-XdqjkZpPKfcRoFt-10" value="Название комапнии" style="ellipse;whiteSpace=wrap;html=1;align=center;" parent="1" vertex="1">
          <mxGeometry x="1147" y="157" width="100" height="40" as="geometry" />
        </mxCell>
        <mxCell id="tMoY-XdqjkZpPKfcRoFt-11" value="" style="endArrow=none;html=1;rounded=0;entryX=0;entryY=1;entryDx=0;entryDy=0;exitX=0.5;exitY=0;exitDx=0;exitDy=0;" parent="1" source="tMoY-XdqjkZpPKfcRoFt-2" target="tMoY-XdqjkZpPKfcRoFt-10" edge="1">
          <mxGeometry relative="1" as="geometry">
            <mxPoint x="637" y="417" as="sourcePoint" />
            <mxPoint x="797" y="417" as="targetPoint" />
          </mxGeometry>
        </mxCell>
        <mxCell id="tMoY-XdqjkZpPKfcRoFt-12" value="Количество объектов под управлением" style="ellipse;whiteSpace=wrap;html=1;align=center;" parent="1" vertex="1">
          <mxGeometry x="1187" y="227" width="130" height="60" as="geometry" />
        </mxCell>
        <mxCell id="tMoY-XdqjkZpPKfcRoFt-14" value="" style="endArrow=none;html=1;rounded=0;entryX=0;entryY=0.5;entryDx=0;entryDy=0;exitX=1;exitY=0.5;exitDx=0;exitDy=0;" parent="1" source="tMoY-XdqjkZpPKfcRoFt-2" edge="1">
          <mxGeometry relative="1" as="geometry">
            <mxPoint x="677" y="417" as="sourcePoint" />
            <mxPoint x="1187" y="257" as="targetPoint" />
          </mxGeometry>
        </mxCell>
        <mxCell id="tMoY-XdqjkZpPKfcRoFt-15" value="С какого года на руководящей должности" style="ellipse;whiteSpace=wrap;html=1;align=center;" parent="1" vertex="1">
          <mxGeometry x="1147" y="317" width="130" height="60" as="geometry" />
        </mxCell>
        <mxCell id="tMoY-XdqjkZpPKfcRoFt-16" value="" style="endArrow=none;html=1;rounded=0;entryX=0.039;entryY=0.338;entryDx=0;entryDy=0;entryPerimeter=0;exitX=0.75;exitY=1;exitDx=0;exitDy=0;" parent="1" source="tMoY-XdqjkZpPKfcRoFt-2" target="tMoY-XdqjkZpPKfcRoFt-15" edge="1">
          <mxGeometry relative="1" as="geometry">
            <mxPoint x="677" y="417" as="sourcePoint" />
            <mxPoint x="837" y="417" as="targetPoint" />
          </mxGeometry>
        </mxCell>
        <mxCell id="tMoY-XdqjkZpPKfcRoFt-17" value="ИНН" style="ellipse;whiteSpace=wrap;html=1;align=center;fontStyle=4" parent="1" vertex="1">
          <mxGeometry x="1027" y="337" width="100" height="40" as="geometry" />
        </mxCell>
        <mxCell id="tMoY-XdqjkZpPKfcRoFt-18" value="" style="endArrow=none;html=1;rounded=0;entryX=0.25;entryY=1;entryDx=0;entryDy=0;exitX=0.5;exitY=0;exitDx=0;exitDy=0;" parent="1" source="tMoY-XdqjkZpPKfcRoFt-17" target="tMoY-XdqjkZpPKfcRoFt-2" edge="1">
          <mxGeometry relative="1" as="geometry">
            <mxPoint x="677" y="417" as="sourcePoint" />
            <mxPoint x="837" y="417" as="targetPoint" />
          </mxGeometry>
        </mxCell>
        <mxCell id="tMoY-XdqjkZpPKfcRoFt-19" value="Владеет" style="shape=rhombus;perimeter=rhombusPerimeter;whiteSpace=wrap;html=1;align=center;" parent="1" vertex="1">
          <mxGeometry x="887" y="227" width="120" height="60" as="geometry" />
        </mxCell>
        <mxCell id="tMoY-XdqjkZpPKfcRoFt-20" value="" style="endArrow=none;html=1;rounded=0;entryX=0;entryY=0.5;entryDx=0;entryDy=0;exitX=1;exitY=0.5;exitDx=0;exitDy=0;" parent="1" source="tMoY-XdqjkZpPKfcRoFt-19" target="tMoY-XdqjkZpPKfcRoFt-2" edge="1">
          <mxGeometry relative="1" as="geometry">
            <mxPoint x="807" y="377" as="sourcePoint" />
            <mxPoint x="967" y="377" as="targetPoint" />
          </mxGeometry>
        </mxCell>
        <mxCell id="tMoY-XdqjkZpPKfcRoFt-21" value="1" style="resizable=0;html=1;whiteSpace=wrap;align=right;verticalAlign=bottom;" parent="tMoY-XdqjkZpPKfcRoFt-20" connectable="0" vertex="1">
          <mxGeometry x="1" relative="1" as="geometry" />
        </mxCell>
        <mxCell id="tMoY-XdqjkZpPKfcRoFt-22" value="" style="endArrow=none;html=1;rounded=0;exitX=0;exitY=0.5;exitDx=0;exitDy=0;entryX=1;entryY=0.5;entryDx=0;entryDy=0;" parent="1" edge="1">
          <mxGeometry relative="1" as="geometry">
            <mxPoint x="886.9999999999998" y="256.29" as="sourcePoint" />
            <mxPoint x="816.9999999999998" y="256.29" as="targetPoint" />
          </mxGeometry>
        </mxCell>
        <mxCell id="tMoY-XdqjkZpPKfcRoFt-23" value="М" style="resizable=0;html=1;whiteSpace=wrap;align=right;verticalAlign=bottom;" parent="tMoY-XdqjkZpPKfcRoFt-22" connectable="0" vertex="1">
          <mxGeometry x="1" relative="1" as="geometry">
            <mxPoint x="20" y="1" as="offset" />
          </mxGeometry>
        </mxCell>
        <mxCell id="tMoY-XdqjkZpPKfcRoFt-24" value="Код" style="ellipse;whiteSpace=wrap;html=1;align=center;fontStyle=4;" parent="1" vertex="1">
          <mxGeometry x="667" y="117" width="100" height="40" as="geometry" />
        </mxCell>
        <mxCell id="tMoY-XdqjkZpPKfcRoFt-25" value="" style="endArrow=none;html=1;rounded=0;exitX=0.5;exitY=1;exitDx=0;exitDy=0;entryX=0.25;entryY=0;entryDx=0;entryDy=0;" parent="1" source="tMoY-XdqjkZpPKfcRoFt-24" target="tMoY-XdqjkZpPKfcRoFt-1" edge="1">
          <mxGeometry relative="1" as="geometry">
            <mxPoint x="607" y="347" as="sourcePoint" />
            <mxPoint x="767" y="347" as="targetPoint" />
          </mxGeometry>
        </mxCell>
        <mxCell id="tMoY-XdqjkZpPKfcRoFt-26" value="Расположение" style="ellipse;whiteSpace=wrap;html=1;align=center;fontStyle=0;" parent="1" vertex="1">
          <mxGeometry x="777" y="127" width="100" height="40" as="geometry" />
        </mxCell>
        <mxCell id="tMoY-XdqjkZpPKfcRoFt-27" value="" style="endArrow=none;html=1;rounded=0;exitX=0.5;exitY=1;exitDx=0;exitDy=0;entryX=0.75;entryY=0;entryDx=0;entryDy=0;" parent="1" source="tMoY-XdqjkZpPKfcRoFt-26" target="tMoY-XdqjkZpPKfcRoFt-1" edge="1">
          <mxGeometry relative="1" as="geometry">
            <mxPoint x="677" y="417" as="sourcePoint" />
            <mxPoint x="837" y="417" as="targetPoint" />
          </mxGeometry>
        </mxCell>
        <mxCell id="tMoY-XdqjkZpPKfcRoFt-28" value="тип АЗС" style="ellipse;whiteSpace=wrap;html=1;align=center;" parent="1" vertex="1">
          <mxGeometry x="567" y="247" width="100" height="40" as="geometry" />
        </mxCell>
        <mxCell id="tMoY-XdqjkZpPKfcRoFt-29" value="" style="endArrow=none;html=1;rounded=0;exitX=1;exitY=0.5;exitDx=0;exitDy=0;entryX=0;entryY=0.5;entryDx=0;entryDy=0;" parent="1" source="tMoY-XdqjkZpPKfcRoFt-28" target="tMoY-XdqjkZpPKfcRoFt-1" edge="1">
          <mxGeometry relative="1" as="geometry">
            <mxPoint x="617" y="327" as="sourcePoint" />
            <mxPoint x="777" y="327" as="targetPoint" />
          </mxGeometry>
        </mxCell>
        <mxCell id="tMoY-XdqjkZpPKfcRoFt-30" value="количество колонок" style="ellipse;whiteSpace=wrap;html=1;align=center;" parent="1" vertex="1">
          <mxGeometry x="817" y="307" width="100" height="40" as="geometry" />
        </mxCell>
        <mxCell id="tMoY-XdqjkZpPKfcRoFt-31" value="Имя" style="ellipse;whiteSpace=wrap;html=1;align=center;fontStyle=0;" parent="1" vertex="1">
          <mxGeometry x="110" y="397" width="100" height="40" as="geometry" />
        </mxCell>
        <mxCell id="tMoY-XdqjkZpPKfcRoFt-32" value="Телефонный номер" style="ellipse;whiteSpace=wrap;html=1;align=center;fontStyle=0;" parent="1" vertex="1">
          <mxGeometry x="120" y="467" width="100" height="40" as="geometry" />
        </mxCell>
        <mxCell id="tMoY-XdqjkZpPKfcRoFt-33" value="Дата заступления на должность&amp;nbsp;" style="ellipse;whiteSpace=wrap;html=1;align=center;" parent="1" vertex="1">
          <mxGeometry x="190" y="517" width="110" height="50" as="geometry" />
        </mxCell>
        <mxCell id="tMoY-XdqjkZpPKfcRoFt-34" value="Квалификация" style="ellipse;whiteSpace=wrap;html=1;align=center;" parent="1" vertex="1">
          <mxGeometry x="370" y="307" width="100" height="40" as="geometry" />
        </mxCell>
        <mxCell id="tMoY-XdqjkZpPKfcRoFt-35" value="Номер договора" style="ellipse;whiteSpace=wrap;html=1;align=center;fontStyle=4" parent="1" vertex="1">
          <mxGeometry x="100" y="327" width="110" height="50" as="geometry" />
        </mxCell>
        <mxCell id="tMoY-XdqjkZpPKfcRoFt-36" value="" style="endArrow=none;html=1;rounded=0;exitX=1;exitY=0.5;exitDx=0;exitDy=0;entryX=0.126;entryY=-0.089;entryDx=0;entryDy=0;entryPerimeter=0;" parent="1" source="tMoY-XdqjkZpPKfcRoFt-35" target="tMoY-XdqjkZpPKfcRoFt-3" edge="1">
          <mxGeometry relative="1" as="geometry">
            <mxPoint x="610" y="407" as="sourcePoint" />
            <mxPoint x="770" y="407" as="targetPoint" />
          </mxGeometry>
        </mxCell>
        <mxCell id="tMoY-XdqjkZpPKfcRoFt-37" value="" style="endArrow=none;html=1;rounded=0;exitX=1;exitY=0.5;exitDx=0;exitDy=0;entryX=0;entryY=0.25;entryDx=0;entryDy=0;" parent="1" source="tMoY-XdqjkZpPKfcRoFt-31" target="tMoY-XdqjkZpPKfcRoFt-3" edge="1">
          <mxGeometry relative="1" as="geometry">
            <mxPoint x="610" y="407" as="sourcePoint" />
            <mxPoint x="770" y="407" as="targetPoint" />
          </mxGeometry>
        </mxCell>
        <mxCell id="tMoY-XdqjkZpPKfcRoFt-38" value="" style="endArrow=none;html=1;rounded=0;entryX=0;entryY=0.75;entryDx=0;entryDy=0;" parent="1" source="tMoY-XdqjkZpPKfcRoFt-32" target="tMoY-XdqjkZpPKfcRoFt-3" edge="1">
          <mxGeometry relative="1" as="geometry">
            <mxPoint x="610" y="407" as="sourcePoint" />
            <mxPoint x="770" y="407" as="targetPoint" />
          </mxGeometry>
        </mxCell>
        <mxCell id="tMoY-XdqjkZpPKfcRoFt-39" value="" style="endArrow=none;html=1;rounded=0;exitX=0.5;exitY=0;exitDx=0;exitDy=0;entryX=0.5;entryY=1;entryDx=0;entryDy=0;" parent="1" target="tMoY-XdqjkZpPKfcRoFt-3" edge="1">
          <mxGeometry relative="1" as="geometry">
            <mxPoint x="245" y="517" as="sourcePoint" />
            <mxPoint x="770" y="407" as="targetPoint" />
          </mxGeometry>
        </mxCell>
        <mxCell id="tMoY-XdqjkZpPKfcRoFt-40" value="" style="endArrow=none;html=1;rounded=0;exitX=0.5;exitY=1;exitDx=0;exitDy=0;entryX=0.75;entryY=0;entryDx=0;entryDy=0;" parent="1" source="tMoY-XdqjkZpPKfcRoFt-34" target="tMoY-XdqjkZpPKfcRoFt-3" edge="1">
          <mxGeometry relative="1" as="geometry">
            <mxPoint x="610" y="407" as="sourcePoint" />
            <mxPoint x="770" y="407" as="targetPoint" />
          </mxGeometry>
        </mxCell>
        <mxCell id="tMoY-XdqjkZpPKfcRoFt-41" value="Продажа" style="shape=rhombus;perimeter=rhombusPerimeter;whiteSpace=wrap;html=1;align=center;" parent="1" vertex="1">
          <mxGeometry x="292" y="235" width="120" height="60" as="geometry" />
        </mxCell>
        <mxCell id="tMoY-XdqjkZpPKfcRoFt-42" value="" style="endArrow=none;html=1;rounded=0;entryX=0.5;entryY=1;entryDx=0;entryDy=0;" parent="1" source="tMoY-XdqjkZpPKfcRoFt-41" target="tMoY-XdqjkZpPKfcRoFt-5" edge="1">
          <mxGeometry relative="1" as="geometry">
            <mxPoint x="807" y="417" as="sourcePoint" />
            <mxPoint x="967" y="417" as="targetPoint" />
          </mxGeometry>
        </mxCell>
        <mxCell id="tMoY-XdqjkZpPKfcRoFt-43" value="М" style="resizable=0;html=1;whiteSpace=wrap;align=right;verticalAlign=bottom;" parent="tMoY-XdqjkZpPKfcRoFt-42" connectable="0" vertex="1">
          <mxGeometry x="1" relative="1" as="geometry">
            <mxPoint y="30" as="offset" />
          </mxGeometry>
        </mxCell>
        <mxCell id="tMoY-XdqjkZpPKfcRoFt-44" value="" style="endArrow=none;html=1;rounded=0;entryX=0.5;entryY=0;entryDx=0;entryDy=0;exitX=0.5;exitY=1;exitDx=0;exitDy=0;" parent="1" source="tMoY-XdqjkZpPKfcRoFt-41" target="tMoY-XdqjkZpPKfcRoFt-3" edge="1">
          <mxGeometry relative="1" as="geometry">
            <mxPoint x="397" y="337" as="sourcePoint" />
            <mxPoint x="677.0000000000002" y="432" as="targetPoint" />
          </mxGeometry>
        </mxCell>
        <mxCell id="tMoY-XdqjkZpPKfcRoFt-45" value="1" style="resizable=0;html=1;whiteSpace=wrap;align=right;verticalAlign=bottom;" parent="tMoY-XdqjkZpPKfcRoFt-44" connectable="0" vertex="1">
          <mxGeometry x="1" relative="1" as="geometry">
            <mxPoint x="21" y="-5" as="offset" />
          </mxGeometry>
        </mxCell>
        <mxCell id="tMoY-XdqjkZpPKfcRoFt-46" value="Поставщик" style="ellipse;whiteSpace=wrap;html=1;align=center;" parent="1" vertex="1">
          <mxGeometry x="247" y="7" width="100" height="40" as="geometry" />
        </mxCell>
        <mxCell id="tMoY-XdqjkZpPKfcRoFt-47" value="Тариф" style="ellipse;whiteSpace=wrap;html=1;align=center;" parent="1" vertex="1">
          <mxGeometry x="367" y="7" width="100" height="40" as="geometry" />
        </mxCell>
        <mxCell id="tMoY-XdqjkZpPKfcRoFt-48" value="Артикул" style="ellipse;whiteSpace=wrap;html=1;align=center;fontStyle=4;" parent="1" vertex="1">
          <mxGeometry x="487" y="7" width="100" height="40" as="geometry" />
        </mxCell>
        <mxCell id="tMoY-XdqjkZpPKfcRoFt-49" value="Тип" style="ellipse;whiteSpace=wrap;align=center;fontStyle=0;strokeColor=default;html=1;" parent="1" vertex="1">
          <mxGeometry x="237" y="87" width="100" height="40" as="geometry" />
        </mxCell>
        <mxCell id="tMoY-XdqjkZpPKfcRoFt-50" value="Компания перевозчик" style="ellipse;whiteSpace=wrap;html=1;align=center;" parent="1" vertex="1">
          <mxGeometry x="237" y="157" width="100" height="40" as="geometry" />
        </mxCell>
        <mxCell id="tMoY-XdqjkZpPKfcRoFt-51" value="Наличие" style="shape=rhombus;perimeter=rhombusPerimeter;whiteSpace=wrap;html=1;align=center;" parent="1" vertex="1">
          <mxGeometry x="517" y="147" width="120" height="60" as="geometry" />
        </mxCell>
        <mxCell id="tMoY-XdqjkZpPKfcRoFt-52" value="" style="endArrow=none;html=1;rounded=0;entryX=0;entryY=0;entryDx=0;entryDy=0;" parent="1" source="tMoY-XdqjkZpPKfcRoFt-51" target="tMoY-XdqjkZpPKfcRoFt-1" edge="1">
          <mxGeometry relative="1" as="geometry">
            <mxPoint x="727" y="277" as="sourcePoint" />
            <mxPoint x="887" y="277" as="targetPoint" />
          </mxGeometry>
        </mxCell>
        <mxCell id="tMoY-XdqjkZpPKfcRoFt-53" value="1" style="resizable=0;html=1;whiteSpace=wrap;align=right;verticalAlign=bottom;" parent="tMoY-XdqjkZpPKfcRoFt-52" connectable="0" vertex="1">
          <mxGeometry x="1" relative="1" as="geometry" />
        </mxCell>
        <mxCell id="tMoY-XdqjkZpPKfcRoFt-54" value="" style="endArrow=none;html=1;rounded=0;exitX=1;exitY=0.5;exitDx=0;exitDy=0;entryX=0;entryY=0;entryDx=0;entryDy=0;" parent="1" source="tMoY-XdqjkZpPKfcRoFt-5" target="tMoY-XdqjkZpPKfcRoFt-51" edge="1">
          <mxGeometry relative="1" as="geometry">
            <mxPoint x="697" y="436.28999999999996" as="sourcePoint" />
            <mxPoint x="857" y="436.28999999999996" as="targetPoint" />
          </mxGeometry>
        </mxCell>
        <mxCell id="tMoY-XdqjkZpPKfcRoFt-55" value="М" style="resizable=0;html=1;whiteSpace=wrap;align=right;verticalAlign=bottom;" parent="tMoY-XdqjkZpPKfcRoFt-54" connectable="0" vertex="1">
          <mxGeometry x="1" relative="1" as="geometry">
            <mxPoint x="-50" y="-35" as="offset" />
          </mxGeometry>
        </mxCell>
        <mxCell id="tMoY-XdqjkZpPKfcRoFt-56" value="" style="endArrow=none;html=1;rounded=0;exitX=1;exitY=0.5;exitDx=0;exitDy=0;entryX=0;entryY=0.5;entryDx=0;entryDy=0;" parent="1" source="tMoY-XdqjkZpPKfcRoFt-50" target="tMoY-XdqjkZpPKfcRoFt-5" edge="1">
          <mxGeometry relative="1" as="geometry">
            <mxPoint x="727" y="277" as="sourcePoint" />
            <mxPoint x="887" y="277" as="targetPoint" />
          </mxGeometry>
        </mxCell>
        <mxCell id="tMoY-XdqjkZpPKfcRoFt-57" value="" style="endArrow=none;html=1;rounded=0;exitX=1;exitY=0.5;exitDx=0;exitDy=0;entryX=0;entryY=0;entryDx=0;entryDy=0;" parent="1" source="tMoY-XdqjkZpPKfcRoFt-49" target="tMoY-XdqjkZpPKfcRoFt-5" edge="1">
          <mxGeometry relative="1" as="geometry">
            <mxPoint x="727" y="277" as="sourcePoint" />
            <mxPoint x="887" y="277" as="targetPoint" />
          </mxGeometry>
        </mxCell>
        <mxCell id="tMoY-XdqjkZpPKfcRoFt-58" value="" style="endArrow=none;html=1;rounded=0;exitX=1;exitY=1;exitDx=0;exitDy=0;entryX=0.25;entryY=0;entryDx=0;entryDy=0;" parent="1" source="tMoY-XdqjkZpPKfcRoFt-46" target="tMoY-XdqjkZpPKfcRoFt-5" edge="1">
          <mxGeometry relative="1" as="geometry">
            <mxPoint x="727" y="277" as="sourcePoint" />
            <mxPoint x="887" y="277" as="targetPoint" />
          </mxGeometry>
        </mxCell>
        <mxCell id="tMoY-XdqjkZpPKfcRoFt-59" value="" style="endArrow=none;html=1;rounded=0;exitX=0.5;exitY=1;exitDx=0;exitDy=0;entryX=0.5;entryY=0;entryDx=0;entryDy=0;" parent="1" source="tMoY-XdqjkZpPKfcRoFt-47" target="tMoY-XdqjkZpPKfcRoFt-5" edge="1">
          <mxGeometry relative="1" as="geometry">
            <mxPoint x="727" y="277" as="sourcePoint" />
            <mxPoint x="887" y="277" as="targetPoint" />
          </mxGeometry>
        </mxCell>
        <mxCell id="tMoY-XdqjkZpPKfcRoFt-60" value="" style="endArrow=none;html=1;rounded=0;exitX=0.5;exitY=1;exitDx=0;exitDy=0;entryX=0.75;entryY=0;entryDx=0;entryDy=0;" parent="1" source="tMoY-XdqjkZpPKfcRoFt-48" target="tMoY-XdqjkZpPKfcRoFt-5" edge="1">
          <mxGeometry relative="1" as="geometry">
            <mxPoint x="727" y="277" as="sourcePoint" />
            <mxPoint x="887" y="277" as="targetPoint" />
          </mxGeometry>
        </mxCell>
        <mxCell id="tMoY-XdqjkZpPKfcRoFt-61" value="Территория" style="whiteSpace=wrap;html=1;align=center;" parent="1" vertex="1">
          <mxGeometry x="737" y="427" width="100" height="40" as="geometry" />
        </mxCell>
        <mxCell id="tMoY-XdqjkZpPKfcRoFt-62" value="Статус" style="ellipse;whiteSpace=wrap;html=1;align=center;" parent="1" vertex="1">
          <mxGeometry x="637" y="497" width="100" height="40" as="geometry" />
        </mxCell>
        <mxCell id="tMoY-XdqjkZpPKfcRoFt-63" value="Расположение" style="ellipse;whiteSpace=wrap;html=1;align=center;fontStyle=0;" parent="1" vertex="1">
          <mxGeometry x="787" y="547" width="100" height="40" as="geometry" />
        </mxCell>
        <mxCell id="tMoY-XdqjkZpPKfcRoFt-64" value="Средний уровень машинопоотока" style="ellipse;whiteSpace=wrap;html=1;align=center;" parent="1" vertex="1">
          <mxGeometry x="857" y="497" width="120" height="50" as="geometry" />
        </mxCell>
        <mxCell id="tMoY-XdqjkZpPKfcRoFt-65" value="Стоимость" style="ellipse;whiteSpace=wrap;html=1;align=center;" parent="1" vertex="1">
          <mxGeometry x="867" y="437" width="100" height="40" as="geometry" />
        </mxCell>
        <mxCell id="tMoY-XdqjkZpPKfcRoFt-66" value="" style="endArrow=none;html=1;rounded=0;exitX=0.5;exitY=0;exitDx=0;exitDy=0;entryX=0.25;entryY=1;entryDx=0;entryDy=0;" parent="1" source="tMoY-XdqjkZpPKfcRoFt-62" target="tMoY-XdqjkZpPKfcRoFt-61" edge="1">
          <mxGeometry relative="1" as="geometry">
            <mxPoint x="727" y="277" as="sourcePoint" />
            <mxPoint x="887" y="277" as="targetPoint" />
          </mxGeometry>
        </mxCell>
        <mxCell id="tMoY-XdqjkZpPKfcRoFt-67" value="" style="endArrow=none;html=1;rounded=0;exitX=0.5;exitY=0;exitDx=0;exitDy=0;entryX=0.5;entryY=1;entryDx=0;entryDy=0;" parent="1" source="tMoY-XdqjkZpPKfcRoFt-63" target="tMoY-XdqjkZpPKfcRoFt-61" edge="1">
          <mxGeometry relative="1" as="geometry">
            <mxPoint x="727" y="277" as="sourcePoint" />
            <mxPoint x="887" y="277" as="targetPoint" />
          </mxGeometry>
        </mxCell>
        <mxCell id="tMoY-XdqjkZpPKfcRoFt-68" value="" style="endArrow=none;html=1;rounded=0;exitX=0;exitY=0;exitDx=0;exitDy=0;entryX=0.75;entryY=1;entryDx=0;entryDy=0;" parent="1" source="tMoY-XdqjkZpPKfcRoFt-64" target="tMoY-XdqjkZpPKfcRoFt-61" edge="1">
          <mxGeometry relative="1" as="geometry">
            <mxPoint x="727" y="277" as="sourcePoint" />
            <mxPoint x="887" y="277" as="targetPoint" />
          </mxGeometry>
        </mxCell>
        <mxCell id="tMoY-XdqjkZpPKfcRoFt-69" value="" style="endArrow=none;html=1;rounded=0;exitX=0;exitY=0.5;exitDx=0;exitDy=0;entryX=1;entryY=0.5;entryDx=0;entryDy=0;" parent="1" source="tMoY-XdqjkZpPKfcRoFt-65" target="tMoY-XdqjkZpPKfcRoFt-61" edge="1">
          <mxGeometry relative="1" as="geometry">
            <mxPoint x="727" y="277" as="sourcePoint" />
            <mxPoint x="887" y="277" as="targetPoint" />
          </mxGeometry>
        </mxCell>
        <mxCell id="tMoY-XdqjkZpPKfcRoFt-70" value="Располагается" style="shape=rhombus;perimeter=rhombusPerimeter;whiteSpace=wrap;html=1;align=center;" parent="1" vertex="1">
          <mxGeometry x="697" y="327" width="120" height="60" as="geometry" />
        </mxCell>
        <mxCell id="tMoY-XdqjkZpPKfcRoFt-71" value="" style="endArrow=none;html=1;rounded=0;exitX=0.5;exitY=0;exitDx=0;exitDy=0;entryX=0.5;entryY=1;entryDx=0;entryDy=0;" parent="1" source="tMoY-XdqjkZpPKfcRoFt-70" target="tMoY-XdqjkZpPKfcRoFt-1" edge="1">
          <mxGeometry relative="1" as="geometry">
            <mxPoint x="727" y="277" as="sourcePoint" />
            <mxPoint x="887" y="277" as="targetPoint" />
          </mxGeometry>
        </mxCell>
        <mxCell id="tMoY-XdqjkZpPKfcRoFt-72" value="1" style="resizable=0;html=1;whiteSpace=wrap;align=right;verticalAlign=bottom;" parent="tMoY-XdqjkZpPKfcRoFt-71" connectable="0" vertex="1">
          <mxGeometry x="1" relative="1" as="geometry">
            <mxPoint x="-10" y="20" as="offset" />
          </mxGeometry>
        </mxCell>
        <mxCell id="tMoY-XdqjkZpPKfcRoFt-73" value="" style="endArrow=none;html=1;rounded=0;exitX=0.5;exitY=1;exitDx=0;exitDy=0;entryX=0.5;entryY=0;entryDx=0;entryDy=0;" parent="1" source="tMoY-XdqjkZpPKfcRoFt-70" target="tMoY-XdqjkZpPKfcRoFt-61" edge="1">
          <mxGeometry relative="1" as="geometry">
            <mxPoint x="727" y="277" as="sourcePoint" />
            <mxPoint x="887" y="277" as="targetPoint" />
          </mxGeometry>
        </mxCell>
        <mxCell id="tMoY-XdqjkZpPKfcRoFt-74" value="1" style="resizable=0;html=1;whiteSpace=wrap;align=right;verticalAlign=bottom;" parent="tMoY-XdqjkZpPKfcRoFt-73" connectable="0" vertex="1">
          <mxGeometry x="1" relative="1" as="geometry">
            <mxPoint x="10" as="offset" />
          </mxGeometry>
        </mxCell>
        <mxCell id="tMoY-XdqjkZpPKfcRoFt-75" value="" style="endArrow=none;html=1;rounded=0;exitX=0.366;exitY=-0.011;exitDx=0;exitDy=0;exitPerimeter=0;entryX=1;entryY=1;entryDx=0;entryDy=0;" parent="1" source="tMoY-XdqjkZpPKfcRoFt-30" target="tMoY-XdqjkZpPKfcRoFt-1" edge="1">
          <mxGeometry relative="1" as="geometry">
            <mxPoint x="727" y="277" as="sourcePoint" />
            <mxPoint x="887" y="277" as="targetPoint" />
          </mxGeometry>
        </mxCell>
        <mxCell id="kneYRZzA9G0D2PSfeeQU-2" value="Кадастровый номер" style="ellipse;whiteSpace=wrap;html=1;align=center;fontStyle=4;" parent="1" vertex="1">
          <mxGeometry x="677" y="547" width="100" height="40" as="geometry" />
        </mxCell>
        <mxCell id="kneYRZzA9G0D2PSfeeQU-3" value="" style="endArrow=none;html=1;rounded=0;exitX=0.398;exitY=1.029;exitDx=0;exitDy=0;exitPerimeter=0;entryX=0.721;entryY=0.058;entryDx=0;entryDy=0;entryPerimeter=0;" parent="1" source="tMoY-XdqjkZpPKfcRoFt-61" target="kneYRZzA9G0D2PSfeeQU-2" edge="1">
          <mxGeometry relative="1" as="geometry">
            <mxPoint x="677" y="507" as="sourcePoint" />
            <mxPoint x="837" y="507" as="targetPoint" />
          </mxGeometry>
        </mxCell>
        <mxCell id="kneYRZzA9G0D2PSfeeQU-5" value="Клиент" style="whiteSpace=wrap;html=1;align=center;" parent="1" vertex="1">
          <mxGeometry x="677" y="727" width="100" height="40" as="geometry" />
        </mxCell>
        <mxCell id="kneYRZzA9G0D2PSfeeQU-9" value="" style="endArrow=none;html=1;rounded=0;entryX=0.75;entryY=1;entryDx=0;entryDy=0;exitX=0;exitY=0;exitDx=0;exitDy=0;" parent="1" source="Y7qk6iliGc3imm8OcjUZ-1" target="tMoY-XdqjkZpPKfcRoFt-3" edge="1">
          <mxGeometry relative="1" as="geometry">
            <mxPoint x="435" y="454" as="sourcePoint" />
            <mxPoint x="757" y="547" as="targetPoint" />
          </mxGeometry>
        </mxCell>
        <mxCell id="kneYRZzA9G0D2PSfeeQU-10" value="1" style="resizable=0;html=1;whiteSpace=wrap;align=right;verticalAlign=bottom;" parent="kneYRZzA9G0D2PSfeeQU-9" connectable="0" vertex="1">
          <mxGeometry x="1" relative="1" as="geometry">
            <mxPoint x="-5" y="20" as="offset" />
          </mxGeometry>
        </mxCell>
        <mxCell id="kneYRZzA9G0D2PSfeeQU-11" value="" style="endArrow=none;html=1;rounded=0;entryX=0.5;entryY=0;entryDx=0;entryDy=0;exitX=1;exitY=1;exitDx=0;exitDy=0;" parent="1" source="Y7qk6iliGc3imm8OcjUZ-1" target="kneYRZzA9G0D2PSfeeQU-5" edge="1">
          <mxGeometry relative="1" as="geometry">
            <mxPoint x="596" y="579" as="sourcePoint" />
            <mxPoint x="807" y="547" as="targetPoint" />
          </mxGeometry>
        </mxCell>
        <mxCell id="kneYRZzA9G0D2PSfeeQU-12" value="М" style="resizable=0;html=1;whiteSpace=wrap;align=right;verticalAlign=bottom;" parent="kneYRZzA9G0D2PSfeeQU-11" connectable="0" vertex="1">
          <mxGeometry x="1" relative="1" as="geometry">
            <mxPoint x="10" as="offset" />
          </mxGeometry>
        </mxCell>
        <mxCell id="kneYRZzA9G0D2PSfeeQU-13" value="Имя" style="ellipse;whiteSpace=wrap;html=1;align=center;" parent="1" vertex="1">
          <mxGeometry x="497" y="727" width="100" height="40" as="geometry" />
        </mxCell>
        <mxCell id="kneYRZzA9G0D2PSfeeQU-14" value="Телефонный номер" style="ellipse;whiteSpace=wrap;html=1;align=center;" parent="1" vertex="1">
          <mxGeometry x="817" y="647" width="100" height="40" as="geometry" />
        </mxCell>
        <mxCell id="kneYRZzA9G0D2PSfeeQU-15" value="Платёжная информация" style="ellipse;whiteSpace=wrap;html=1;align=center;" parent="1" vertex="1">
          <mxGeometry x="827" y="717" width="100" height="40" as="geometry" />
        </mxCell>
        <mxCell id="kneYRZzA9G0D2PSfeeQU-16" value="&lt;u&gt;Номер покупателя&lt;/u&gt;" style="ellipse;whiteSpace=wrap;html=1;align=center;" parent="1" vertex="1">
          <mxGeometry x="707" y="637" width="100" height="40" as="geometry" />
        </mxCell>
        <mxCell id="kneYRZzA9G0D2PSfeeQU-18" value="" style="endArrow=none;html=1;rounded=0;exitX=1;exitY=0.5;exitDx=0;exitDy=0;entryX=0;entryY=0.25;entryDx=0;entryDy=0;" parent="1" source="kneYRZzA9G0D2PSfeeQU-13" target="kneYRZzA9G0D2PSfeeQU-5" edge="1">
          <mxGeometry relative="1" as="geometry">
            <mxPoint x="617" y="447" as="sourcePoint" />
            <mxPoint x="777" y="447" as="targetPoint" />
          </mxGeometry>
        </mxCell>
        <mxCell id="kneYRZzA9G0D2PSfeeQU-19" value="" style="endArrow=none;html=1;rounded=0;exitX=0.5;exitY=1;exitDx=0;exitDy=0;entryX=0.75;entryY=0;entryDx=0;entryDy=0;" parent="1" source="kneYRZzA9G0D2PSfeeQU-16" target="kneYRZzA9G0D2PSfeeQU-5" edge="1">
          <mxGeometry relative="1" as="geometry">
            <mxPoint x="617" y="447" as="sourcePoint" />
            <mxPoint x="777" y="447" as="targetPoint" />
          </mxGeometry>
        </mxCell>
        <mxCell id="kneYRZzA9G0D2PSfeeQU-20" value="" style="endArrow=none;html=1;rounded=0;exitX=0;exitY=1;exitDx=0;exitDy=0;entryX=1;entryY=0;entryDx=0;entryDy=0;" parent="1" source="kneYRZzA9G0D2PSfeeQU-14" target="kneYRZzA9G0D2PSfeeQU-5" edge="1">
          <mxGeometry relative="1" as="geometry">
            <mxPoint x="617" y="447" as="sourcePoint" />
            <mxPoint x="777" y="447" as="targetPoint" />
          </mxGeometry>
        </mxCell>
        <mxCell id="kneYRZzA9G0D2PSfeeQU-21" value="" style="endArrow=none;html=1;rounded=0;exitX=-0.001;exitY=0.229;exitDx=0;exitDy=0;exitPerimeter=0;entryX=1;entryY=0.5;entryDx=0;entryDy=0;" parent="1" source="kneYRZzA9G0D2PSfeeQU-15" target="kneYRZzA9G0D2PSfeeQU-5" edge="1">
          <mxGeometry relative="1" as="geometry">
            <mxPoint x="617" y="447" as="sourcePoint" />
            <mxPoint x="777" y="447" as="targetPoint" />
          </mxGeometry>
        </mxCell>
        <mxCell id="kneYRZzA9G0D2PSfeeQU-22" value="Дата рождения" style="ellipse;whiteSpace=wrap;html=1;align=center;" parent="1" vertex="1">
          <mxGeometry x="527" y="657" width="100" height="40" as="geometry" />
        </mxCell>
        <mxCell id="kneYRZzA9G0D2PSfeeQU-23" value="" style="endArrow=none;html=1;rounded=0;exitX=1;exitY=0.5;exitDx=0;exitDy=0;entryX=0;entryY=0;entryDx=0;entryDy=0;" parent="1" source="kneYRZzA9G0D2PSfeeQU-22" target="kneYRZzA9G0D2PSfeeQU-5" edge="1">
          <mxGeometry relative="1" as="geometry">
            <mxPoint x="607" y="397" as="sourcePoint" />
            <mxPoint x="767" y="397" as="targetPoint" />
          </mxGeometry>
        </mxCell>
        <mxCell id="kneYRZzA9G0D2PSfeeQU-24" value="Работает" style="shape=rhombus;perimeter=rhombusPerimeter;whiteSpace=wrap;html=1;align=center;" parent="1" vertex="1">
          <mxGeometry x="470" y="303" width="120" height="60" as="geometry" />
        </mxCell>
        <mxCell id="kneYRZzA9G0D2PSfeeQU-27" value="" style="endArrow=none;html=1;rounded=0;entryX=0;entryY=1;entryDx=0;entryDy=0;exitX=1;exitY=0.5;exitDx=0;exitDy=0;" parent="1" target="tMoY-XdqjkZpPKfcRoFt-1" edge="1" source="kneYRZzA9G0D2PSfeeQU-24">
          <mxGeometry relative="1" as="geometry">
            <mxPoint x="637" y="367" as="sourcePoint" />
            <mxPoint x="767" y="437" as="targetPoint" />
          </mxGeometry>
        </mxCell>
        <mxCell id="kneYRZzA9G0D2PSfeeQU-28" value="1" style="resizable=0;html=1;whiteSpace=wrap;align=right;verticalAlign=bottom;" parent="kneYRZzA9G0D2PSfeeQU-27" connectable="0" vertex="1">
          <mxGeometry x="1" relative="1" as="geometry" />
        </mxCell>
        <mxCell id="kneYRZzA9G0D2PSfeeQU-29" value="" style="endArrow=none;html=1;rounded=0;exitX=0;exitY=1;exitDx=0;exitDy=0;entryX=1;entryY=0.25;entryDx=0;entryDy=0;" parent="1" source="kneYRZzA9G0D2PSfeeQU-24" target="tMoY-XdqjkZpPKfcRoFt-3" edge="1">
          <mxGeometry relative="1" as="geometry">
            <mxPoint x="607" y="437" as="sourcePoint" />
            <mxPoint x="767" y="437" as="targetPoint" />
          </mxGeometry>
        </mxCell>
        <mxCell id="kneYRZzA9G0D2PSfeeQU-30" value="М" style="resizable=0;html=1;whiteSpace=wrap;align=right;verticalAlign=bottom;" parent="kneYRZzA9G0D2PSfeeQU-29" connectable="0" vertex="1">
          <mxGeometry x="1" relative="1" as="geometry">
            <mxPoint x="10" y="-10" as="offset" />
          </mxGeometry>
        </mxCell>
        <mxCell id="Y7qk6iliGc3imm8OcjUZ-1" value="Расход топлива" style="whiteSpace=wrap;html=1;align=center;" vertex="1" parent="1">
          <mxGeometry x="430" y="507" width="100" height="40" as="geometry" />
        </mxCell>
        <mxCell id="Y7qk6iliGc3imm8OcjUZ-3" value="Номер чека" style="ellipse;whiteSpace=wrap;html=1;align=center;fontStyle=4" vertex="1" parent="1">
          <mxGeometry x="510" y="380" width="110" height="50" as="geometry" />
        </mxCell>
        <mxCell id="Y7qk6iliGc3imm8OcjUZ-4" value="" style="endArrow=none;html=1;rounded=0;entryX=0;entryY=1;entryDx=0;entryDy=0;exitX=0.5;exitY=0;exitDx=0;exitDy=0;" edge="1" parent="1" source="Y7qk6iliGc3imm8OcjUZ-1" target="Y7qk6iliGc3imm8OcjUZ-3">
          <mxGeometry relative="1" as="geometry">
            <mxPoint x="445" y="464" as="sourcePoint" />
            <mxPoint x="355" y="455" as="targetPoint" />
          </mxGeometry>
        </mxCell>
        <mxCell id="Y7qk6iliGc3imm8OcjUZ-6" value="Сумма" style="ellipse;whiteSpace=wrap;html=1;align=center;" vertex="1" parent="1">
          <mxGeometry x="560" y="441" width="100" height="40" as="geometry" />
        </mxCell>
        <mxCell id="Y7qk6iliGc3imm8OcjUZ-7" value="Стоимость" style="ellipse;whiteSpace=wrap;html=1;align=center;" vertex="1" parent="1">
          <mxGeometry x="217" y="664" width="100" height="40" as="geometry" />
        </mxCell>
        <mxCell id="Y7qk6iliGc3imm8OcjUZ-8" value="Тип топлива" style="ellipse;whiteSpace=wrap;html=1;align=center;" vertex="1" parent="1">
          <mxGeometry x="322" y="708" width="100" height="40" as="geometry" />
        </mxCell>
        <mxCell id="Y7qk6iliGc3imm8OcjUZ-9" value="Кол-во литров" style="ellipse;whiteSpace=wrap;html=1;align=center;" vertex="1" parent="1">
          <mxGeometry x="237" y="592" width="100" height="40" as="geometry" />
        </mxCell>
        <mxCell id="Y7qk6iliGc3imm8OcjUZ-10" value="Время" style="ellipse;whiteSpace=wrap;html=1;align=center;" vertex="1" parent="1">
          <mxGeometry x="404" y="639" width="100" height="40" as="geometry" />
        </mxCell>
        <mxCell id="Y7qk6iliGc3imm8OcjUZ-11" value="" style="endArrow=none;html=1;rounded=0;entryX=0;entryY=0.5;entryDx=0;entryDy=0;exitX=0.75;exitY=0;exitDx=0;exitDy=0;" edge="1" parent="1" source="Y7qk6iliGc3imm8OcjUZ-1" target="Y7qk6iliGc3imm8OcjUZ-6">
          <mxGeometry relative="1" as="geometry">
            <mxPoint x="490" y="517" as="sourcePoint" />
            <mxPoint x="536" y="433" as="targetPoint" />
          </mxGeometry>
        </mxCell>
        <mxCell id="Y7qk6iliGc3imm8OcjUZ-12" value="" style="endArrow=none;html=1;rounded=0;entryX=0.5;entryY=0;entryDx=0;entryDy=0;exitX=0;exitY=0.5;exitDx=0;exitDy=0;" edge="1" parent="1" source="Y7qk6iliGc3imm8OcjUZ-1" target="Y7qk6iliGc3imm8OcjUZ-9">
          <mxGeometry relative="1" as="geometry">
            <mxPoint x="500" y="527" as="sourcePoint" />
            <mxPoint x="546" y="443" as="targetPoint" />
          </mxGeometry>
        </mxCell>
        <mxCell id="Y7qk6iliGc3imm8OcjUZ-13" value="" style="endArrow=none;html=1;rounded=0;entryX=0.756;entryY=0.04;entryDx=0;entryDy=0;exitX=0.75;exitY=1;exitDx=0;exitDy=0;entryPerimeter=0;" edge="1" parent="1" source="Y7qk6iliGc3imm8OcjUZ-1" target="Y7qk6iliGc3imm8OcjUZ-10">
          <mxGeometry relative="1" as="geometry">
            <mxPoint x="510" y="537" as="sourcePoint" />
            <mxPoint x="556" y="453" as="targetPoint" />
          </mxGeometry>
        </mxCell>
        <mxCell id="Y7qk6iliGc3imm8OcjUZ-14" value="" style="endArrow=none;html=1;rounded=0;entryX=0.698;entryY=0.035;entryDx=0;entryDy=0;exitX=0;exitY=0.75;exitDx=0;exitDy=0;entryPerimeter=0;" edge="1" parent="1" source="Y7qk6iliGc3imm8OcjUZ-1" target="Y7qk6iliGc3imm8OcjUZ-7">
          <mxGeometry relative="1" as="geometry">
            <mxPoint x="520" y="547" as="sourcePoint" />
            <mxPoint x="566" y="463" as="targetPoint" />
          </mxGeometry>
        </mxCell>
        <mxCell id="Y7qk6iliGc3imm8OcjUZ-15" value="" style="endArrow=none;html=1;rounded=0;entryX=0.5;entryY=0;entryDx=0;entryDy=0;exitX=0;exitY=1;exitDx=0;exitDy=0;" edge="1" parent="1" source="Y7qk6iliGc3imm8OcjUZ-1" target="Y7qk6iliGc3imm8OcjUZ-8">
          <mxGeometry relative="1" as="geometry">
            <mxPoint x="530" y="557" as="sourcePoint" />
            <mxPoint x="576" y="473" as="targetPoint" />
          </mxGeometry>
        </mxCell>
        <mxCell id="Y7qk6iliGc3imm8OcjUZ-16" value="Остаток" style="whiteSpace=wrap;html=1;align=center;" vertex="1" parent="1">
          <mxGeometry x="1207" y="562" width="100" height="40" as="geometry" />
        </mxCell>
        <mxCell id="Y7qk6iliGc3imm8OcjUZ-17" value="Тип" style="ellipse;whiteSpace=wrap;html=1;align=center;" vertex="1" parent="1">
          <mxGeometry x="1072" y="531" width="100" height="40" as="geometry" />
        </mxCell>
        <mxCell id="Y7qk6iliGc3imm8OcjUZ-18" value="Количество" style="ellipse;whiteSpace=wrap;html=1;align=center;" vertex="1" parent="1">
          <mxGeometry x="1064" y="607" width="100" height="40" as="geometry" />
        </mxCell>
        <mxCell id="Y7qk6iliGc3imm8OcjUZ-19" value="Артикул" style="ellipse;whiteSpace=wrap;html=1;align=center;" vertex="1" parent="1">
          <mxGeometry x="1188" y="672" width="100" height="40" as="geometry" />
        </mxCell>
        <mxCell id="Y7qk6iliGc3imm8OcjUZ-20" value="&lt;u&gt;123&lt;/u&gt;" style="ellipse;whiteSpace=wrap;html=1;align=center;" vertex="1" parent="1">
          <mxGeometry x="1154" y="481" width="100" height="40" as="geometry" />
        </mxCell>
      </root>
    </mxGraphModel>
  </diagram>
</mxfile>
